<svg xmlns="http://www.w3.org/2000/svg" xml:space="preserve" id="Layer_1" x="0" y="0" viewBox="0 0 512 512"><style>.st0{fill:#2980b9}</style><g id="XMLID_1_"><path id="XMLID_3_" d="M42.5 106.7C18.9 106.7 0 125.6 0 149.3v298.5c0 23.6 18.9 42.5 42.5 42.5h426.9c23.6 0 42.5-18.9 42.5-42.5V150.1c0-23.6-18.9-42.5-42.5-42.5H42.5z" class="st0"/><path id="XMLID_4_" d="M63.8 21.7c-23.6 0-42.5 18.9-42.5 42.5v298.5c0 23.6 18.9 42.5 42.5 42.5h384.3c23.6 0 42.5-18.9 42.5-42.5v-256c0-23.6-18.9-42.5-42.5-42.5H277.2l-63.8-42.5z" class="st0"/><path id="XMLID_5_" d="M490.7 298.9V128.8c0-23.6-18.9-42.5-42.5-42.5H63.8c-23.6 0-42.5 18.9-42.5 42.5v170.9h469.5v-.8z" style="fill:#bdc3c7"/><path id="XMLID_6_" d="M42.5 106.7C18.9 106.7 0 125.6 0 149.3v277.3c0 23.6 18.9 42.5 42.5 42.5h426.9c23.6 0 42.5-18.9 42.5-42.5V150.1c0-23.6-18.9-42.5-42.5-42.5H42.5z" style="fill:#3498db"/></g></svg>